# xmcd
# 
# Track frame offsets:
#     150
#     18067
#     33947
#     52252
#     69205
#     87240
#     102250
#     122838
#     139805
#     155780
#     173933
#     195335
# 
# Disc length: 2864
# 
# Revision: 6
# Processed by: cddbd v1.5.2PL0 Copyright (c) Steve Scherf et al.
# Submitted via: fre:ac v1.0.31
# 
DISCID=9c0b2e0c
DTITLE=Carrie Underwood - Greatest Hits: Decade #1 - Disc 1
DYEAR=2014
DGENRE=Country
TTITLE0=Something in the Water
TTITLE1=Little Toy Guns
TTITLE2=Inside Your Heaven
TTITLE3=Jesus, Take the Wheel
TTITLE4=Don't Forget to Remember Me
TTITLE5=Before He Cheats
TTITLE6=Wasted
TTITLE7=So Small
TTITLE8=All-American Girl
TTITLE9=Last Name
TTITLE10=Just a Dream
TTITLE11=I Told You So [feat. Randy Travis]
EXTD=
EXTT0=
EXTT1=
EXTT2=
EXTT3=
EXTT4=
EXTT5=
EXTT6=
EXTT7=
EXTT8=
EXTT9=
EXTT10=
EXTT11=
PLAYORDER=
